Coordinates
version=1
nRows=24
nColumns=22
inDegrees=yes

Units are S.I. units (second, meters, Newtons, ...)
If the header above contains a line with 'inDegrees', this indicates whether rotational values are in degrees (yes) or radians (no).

endheader
time	pelvis_tilt	pelvis_list	pelvis_rotation	pelvis_tx	pelvis_ty	pelvis_tz	hip_flexion_r	hip_adduction_r	hip_rotation_r	knee_angle_r	ankle_angle_r	subtalar_angle_r	hip_flexion_l	hip_adduction_l	hip_rotation_l	knee_angle_l	ankle_angle_l	subtalar_angle_l	lumbar_extension	lumbar_bending	lumbar_rotation
      3.39000000	      7.11561333	      0.41832095	     28.16426645	     -0.21956463	      0.89718297	     -0.67971702	     23.21980628	      4.62161431	    -21.01148736	    -22.67381648	     -0.60210522	     -6.23003689	    -21.38755746	    -11.57762119	    -12.57162184	    -29.60309338	     15.28093167	      3.96120897	    -12.16931600	      7.38889506	    -18.70216821
      3.40000000	      7.19428025	      0.16165185	     27.65187787	     -0.20539086	      0.89828805	     -0.68199036	     22.95988511	      5.25682670	    -20.58645789	    -23.65362246	     -0.50356120	     -7.23665416	    -20.90382904	    -12.02981932	    -11.41212969	    -31.67926533	     12.09992250	      4.43773000	    -11.77401064	      7.46952792	    -18.60025004
      3.41000000	      7.27439319	     -0.01262681	     27.15306693	     -0.19147964	      0.89965635	     -0.68416783	     22.60459751	      5.84551074	    -20.02800164	    -24.54407153	     -0.11119830	     -8.05897649	    -20.23786752	    -12.38675086	    -10.04134153	    -33.94126770	      8.78881073	      4.68565703	    -11.46568558	      7.48210118	    -18.52545747
      3.42000000	      7.37727783	     -0.09029541	     26.68118673	     -0.17790819	      0.90127162	     -0.68627915	     22.12373175	      6.37578893	    -19.36921316	    -25.33084915	      0.49090131	     -8.64370403	    -19.42590602	    -12.62773062	     -8.46232067	    -36.34180348	      5.46557322	      4.63594132	    -11.28047217	      7.42273289	    -18.48037641
      3.43000000	      7.50012496	     -0.15674534	     26.24534490	     -0.16466305	      0.90296750	     -0.68832365	     21.55225533	      6.92029985	    -18.68201745	    -25.98711805	      1.28661229	     -9.19876145	    -18.43027003	    -12.84560865	     -6.79107993	    -38.88693712	      2.29303384	      4.45528372	    -11.16464125	      7.37823181	    -18.42090392
      3.44000000	      7.64288497	     -0.19599498	     25.85474158	     -0.15181762	      0.90470986	     -0.69031224	     20.88690567	      7.45121526	    -17.99268862	    -26.51137221	      2.17287845	     -9.64876092	    -17.26503516	    -13.01543781	     -5.05581820	    -41.54445980	     -0.58994002	      4.10340438	    -11.13715989	      7.33067861	    -18.37074694
      3.45000000	      7.80009608	     -0.23824854	     25.51585381	     -0.13937527	      0.90643162	     -0.69224417	     20.14512584	      7.98611718	    -17.33809161	    -26.89189209	      3.08781370	    -10.00244085	    -15.92589390	    -13.16598091	     -3.31812130	    -44.28229608	     -3.05203808	      3.64263530	    -11.17348027	      7.30984209	    -18.32506352
      3.46000000	      7.95582029	     -0.30493538	     25.22795464	     -0.12734822	      0.90805822	     -0.69406987	     19.35552186	      8.53629893	    -16.72845056	    -27.12231814	      3.98167157	    -10.32209384	    -14.39043324	    -13.33330960	     -1.67305017	    -47.08700055	     -4.96248151	      3.13485507	    -11.24976208	      7.32400518	    -18.31626672
      3.47000000	      8.13355339	     -0.42256972	     24.98713729	     -0.11566891	      0.90962601	     -0.69579556	     18.49000225	      9.12841168	    -16.22751379	    -27.17673349	      4.80953242	    -10.54817725	    -12.70943988	    -13.55279361	     -0.14704194	    -49.88051945	     -6.27703179	      2.65396560	    -11.36759792	      7.40625381	    -18.28437253
      3.48000000	      8.31499784	     -0.60614847	     24.77863061	     -0.10429177	      0.91110436	     -0.69736809	     17.57116086	      9.77253031	    -15.82950923	    -27.04552603	      5.54631067	    -10.73143959	    -10.87863542	    -13.84627709	      1.21537623	    -52.62141367	     -6.95163056	      2.21656632	    -11.49537988	      7.55534475	    -18.22907423
      3.49000000	      8.48856874	     -0.84186209	     24.57652036	     -0.09317658	      0.91250123	     -0.69873162	     16.61148461	     10.46159969	    -15.48031675	    -26.74852757	      6.17230222	    -10.90997777	     -8.91865678	    -14.20174352	      2.38849413	    -55.25504607	     -7.01432893	      1.76340673	    -11.62413887	      7.74604482	    -18.18217736
      3.50000000	      8.64923955	     -1.13267118	     24.35904935	     -0.08223848	      0.91384734	     -0.69987809	     15.61204275	     11.19520883	    -15.19661997	    -26.28856183	      6.69063298	    -11.08194801	     -6.85959897	    -14.61229958	      3.38759067	    -57.72102797	     -6.55649587	      1.22374820	    -11.73577645	      7.97152203	    -18.09170088
      3.51000000	      8.78451983	     -1.45700956	     24.09954025	     -0.07140362	      0.91517024	     -0.70079041	     14.57513645	     11.95747649	    -14.91944288	    -25.67839405	      7.09720413	    -11.24745446	     -4.73441693	    -15.04872520	      4.21163869	    -59.96974497	     -5.67649305	      0.51257547	    -11.81500909	      8.20161792	    -17.96073386
      3.52000000	      8.88856612	     -1.77271564	     23.74553686	     -0.06061414	      0.91650602	     -0.70143567	     13.50588792	     12.70841057	    -14.59365164	    -24.97897145	      7.49273939	    -11.41051767	     -2.60821480	    -15.44887419	      4.84948854	    -61.94773208	     -4.46448239	     -0.54143680	    -11.87713751	      8.38180344	    -17.75126279
      3.53000000	      8.96882335	     -2.07502644	     23.28446008	     -0.04984969	      0.91789561	     -0.70181605	     12.39357926	     13.45136657	    -14.16500344	    -24.19294060	      7.73836695	    -11.53360619	     -0.52091727	    -15.80599631	      5.31992918	    -63.62875716	     -3.02803659	     -1.79621472	    -11.92992878	      8.51509206	    -17.48693294
      3.54000000	      9.01623202	     -2.33012500	     22.68157022	     -0.03908947	      0.91934613	     -0.70191966	     11.24591710	     14.14487518	    -13.59471085	    -23.36882251	      7.92365852	    -11.62843756	      1.48217612	    -16.07227210	      5.61211918	    -64.98775131	     -1.42546766	     -3.36521988	    -11.98111185	      8.56005888	    -17.13738117
      3.55000000	      9.04313184	     -2.51753635	     21.92234924	     -0.02833265	      0.92088349	     -0.70176909	     10.04706307	     14.76545861	    -12.86054754	    -22.53063992	      8.07044809	    -11.69664881	      3.34916114	    -16.22810349	      5.72422271	    -66.00577154	      0.31381491	     -5.22911883	    -12.05443842	      8.50574218	    -16.69531562
      3.56000000	      9.05468260	     -2.62875546	     21.00337024	     -0.01757572	      0.92250610	     -0.70137448	      8.78588982	     15.29764897	    -11.96074906	    -21.67995330	      8.18429412	    -11.74145966	      5.05588909	    -16.26815992	      5.65962591	    -66.67909277	      2.14731780	     -7.30309964	    -12.15503835	      8.34540556	    -16.16657675
      3.57000000	      9.07216705	     -2.66889677	     19.94861629	     -0.00691143	      0.92419331	     -0.70079939	      7.47241784	     15.73303160	    -10.92791723	    -20.85801466	      8.30548151	    -11.76397072	      6.59290724	    -16.19720922	      5.46071358	    -67.02233046	      4.06889808	     -9.45102347	    -12.31635124	      8.10711681	    -15.55180418
      3.58000000	      9.09045947	     -2.65019877	     18.77625727	      0.00369742	      0.92591447	     -0.70005599	      6.10142131	     16.07625805	     -9.76827156	    -20.02848604	      8.40218983	    -11.76962995	      7.97257358	    -16.04190761	      5.13204766	    -67.03662290	      5.99209994	    -11.51980030	    -12.51037620	      7.79772316	    -14.88103026
      3.59000000	      9.11356093	     -2.59673848	     17.52547877	      0.01418910	      0.92760791	     -0.69919617	      4.69632795	     16.33997827	     -8.51304324	    -19.20059222	      8.48579731	    -11.76021551	      9.22730851	    -15.83001973	      4.71830365	    -66.74938952	      7.86589512	    -13.37030087	    -12.73470811	      7.45252259	    -14.17754828
      3.60000000	      9.14083405	     -2.53245360	     16.23538331	      0.02452807	      0.92921446	     -0.69826486	      3.27715215	     16.54164452	     -7.19007873	    -18.37319150	      8.55332415	    -11.74047166	     10.39098298	    -15.59172124	      4.25557096	    -66.18428606	      9.62768202	    -14.90042594	    -12.97892213	      7.10229287	    -13.46893037
      3.61000000	      9.16239547	     -2.48072671	     14.94505889	      0.03469293	      0.93066217	     -0.69730927	      1.87494776	     16.69847322	     -5.83835189	    -17.55206387	      8.61171952	    -11.71717044	     11.50498645	    -15.35134931	      3.77893458	    -65.36770843	     11.23559083	    -16.08115287	    -13.22152264	      6.77454000	    -12.78898467
      3.62000000	      9.16907408	     -2.45776542	     13.67577158	      0.04469302	      0.93189993	     -0.69635022	      0.50817328	     16.82756790	     -4.46865162	    -16.73758698	      8.65986940	    -11.69837256	     12.59170122	    -15.13416014	      3.29092537	    -64.31335850	     12.62328534	    -16.90591909	    -13.44515483	      6.48840316	    -12.16694649
